<?xml version="1.0" encoding="UTF-8" standalone="no"?>
<!-- Created with Inkscape (http://www.inkscape.org/) -->

<svg
   xmlns:dc="http://purl.org/dc/elements/1.1/"
   xmlns:cc="http://creativecommons.org/ns#"
   xmlns:rdf="http://www.w3.org/1999/02/22-rdf-syntax-ns#"
   xmlns:svg="http://www.w3.org/2000/svg"
   xmlns="http://www.w3.org/2000/svg"
   xmlns:xlink="http://www.w3.org/1999/xlink"
   xmlns:sodipodi="http://sodipodi.sourceforge.net/DTD/sodipodi-0.dtd"
   xmlns:inkscape="http://www.inkscape.org/namespaces/inkscape"
   width="744.09448819"
   height="1052.3622047"
   id="svg2"
   version="1.1"
   inkscape:version="0.48.2 r9819"
   sodipodi:docname="drawing.svg">
  <defs
     id="defs4">
    <linearGradient
       id="linearGradient4150">
      <stop
         style="stop-color:#3ccf54;stop-opacity:0;"
         offset="0"
         id="stop4152" />
      <stop
         id="stop4154"
         offset="0.33776349"
         style="stop-color:#56d04d;stop-opacity:1;" />
      <stop
         style="stop-color:#897a43;stop-opacity:0;"
         offset="1"
         id="stop4156" />
    </linearGradient>
    <linearGradient
       id="linearGradient4142">
      <stop
         style="stop-color:#43dd4c;stop-opacity:0;"
         offset="0"
         id="stop4144" />
      <stop
         id="stop4146"
         offset="0.33776349"
         style="stop-color:#4dd06f;stop-opacity:1;" />
      <stop
         style="stop-color:#36370e;stop-opacity:0;"
         offset="1"
         id="stop4148" />
    </linearGradient>
    <linearGradient
       id="linearGradient4136">
      <stop
         style="stop-color:#6492d4;stop-opacity:1;"
         offset="0"
         id="stop4138" />
      <stop
         style="stop-color:#307e1a;stop-opacity:1;"
         offset="1"
         id="stop4140" />
    </linearGradient>
    <linearGradient
       id="linearGradient3955">
      <stop
         id="stop3957"
         offset="0"
         style="stop-color:#f9a3a3;stop-opacity:0;" />
      <stop
         style="stop-color:#d0ba4d;stop-opacity:1;"
         offset="0.33776349"
         id="stop3959" />
      <stop
         id="stop3961"
         offset="1"
         style="stop-color:#897a43;stop-opacity:0;" />
    </linearGradient>
    <linearGradient
       id="linearGradient3949">
      <stop
         id="stop3951"
         offset="0"
         style="stop-color:#d4bd64;stop-opacity:1;" />
      <stop
         id="stop3953"
         offset="1"
         style="stop-color:#474529;stop-opacity:1;" />
    </linearGradient>
    <linearGradient
       id="linearGradient3895">
      <stop
         style="stop-color:#504389;stop-opacity:0;"
         offset="0"
         id="stop3897" />
      <stop
         id="stop3903"
         offset="0.33776349"
         style="stop-color:#894381;stop-opacity:1;" />
      <stop
         style="stop-color:#504389;stop-opacity:0;"
         offset="1"
         id="stop3899" />
    </linearGradient>
    <linearGradient
       id="linearGradient3887">
      <stop
         style="stop-color:#3311c6;stop-opacity:0;"
         offset="0"
         id="stop3889" />
      <stop
         style="stop-color:#504389;stop-opacity:0;"
         offset="1"
         id="stop3891" />
    </linearGradient>
    <linearGradient
       id="linearGradient3793">
      <stop
         style="stop-color:#646cd4;stop-opacity:1;"
         offset="0"
         id="stop3795" />
      <stop
         style="stop-color:#941fa7;stop-opacity:1;"
         offset="1"
         id="stop3797" />
    </linearGradient>
    <linearGradient
       id="linearGradient3610">
      <stop
         style="stop-color:#ffffff;stop-opacity:1;"
         offset="0"
         id="stop3612" />
      <stop
         style="stop-color:#b6b6b6;stop-opacity:1;"
         offset="1"
         id="stop3614" />
    </linearGradient>
    <inkscape:perspective
       sodipodi:type="inkscape:persp3d"
       inkscape:vp_x="0 : 526.18109 : 1"
       inkscape:vp_y="0 : 1000 : 0"
       inkscape:vp_z="744.09448 : 526.18109 : 1"
       inkscape:persp3d-origin="372.04724 : 350.78739 : 1"
       id="perspective10" />
    <radialGradient
       inkscape:collect="always"
       xlink:href="#linearGradient3610"
       id="radialGradient3616"
       cx="873.57141"
       cy="872.00854"
       fx="873.57141"
       fy="872.00854"
       r="35"
       gradientUnits="userSpaceOnUse" />
    <radialGradient
       inkscape:collect="always"
       xlink:href="#linearGradient3610"
       id="radialGradient3628"
       gradientUnits="userSpaceOnUse"
       cx="873.57141"
       cy="872.00854"
       fx="873.57141"
       fy="872.00854"
       r="35" />
    <radialGradient
       inkscape:collect="always"
       xlink:href="#linearGradient3610"
       id="radialGradient3630"
       gradientUnits="userSpaceOnUse"
       cx="873.57141"
       cy="872.00854"
       fx="873.57141"
       fy="872.00854"
       r="35" />
    <radialGradient
       inkscape:collect="always"
       xlink:href="#linearGradient3610"
       id="radialGradient3632"
       gradientUnits="userSpaceOnUse"
       cx="873.57141"
       cy="872.00854"
       fx="873.57141"
       fy="872.00854"
       r="35" />
    <radialGradient
       inkscape:collect="always"
       xlink:href="#linearGradient3610"
       id="radialGradient3634"
       gradientUnits="userSpaceOnUse"
       cx="873.57141"
       cy="872.00854"
       fx="873.57141"
       fy="872.00854"
       r="35" />
    <radialGradient
       inkscape:collect="always"
       xlink:href="#linearGradient3610"
       id="radialGradient3636"
       gradientUnits="userSpaceOnUse"
       cx="873.57141"
       cy="872.00854"
       fx="873.57141"
       fy="872.00854"
       r="35" />
    <radialGradient
       inkscape:collect="always"
       xlink:href="#linearGradient3610"
       id="radialGradient3650"
       gradientUnits="userSpaceOnUse"
       cx="873.57141"
       cy="872.00854"
       fx="873.57141"
       fy="872.00854"
       r="35" />
    <radialGradient
       inkscape:collect="always"
       xlink:href="#linearGradient3610"
       id="radialGradient3652"
       gradientUnits="userSpaceOnUse"
       cx="873.57141"
       cy="872.00854"
       fx="873.57141"
       fy="872.00854"
       r="35" />
    <radialGradient
       inkscape:collect="always"
       xlink:href="#linearGradient3610"
       id="radialGradient3654"
       gradientUnits="userSpaceOnUse"
       cx="873.57141"
       cy="872.00854"
       fx="873.57141"
       fy="872.00854"
       r="35" />
    <radialGradient
       inkscape:collect="always"
       xlink:href="#linearGradient3610"
       id="radialGradient3656"
       gradientUnits="userSpaceOnUse"
       cx="873.57141"
       cy="872.00854"
       fx="873.57141"
       fy="872.00854"
       r="35" />
    <radialGradient
       inkscape:collect="always"
       xlink:href="#linearGradient3610"
       id="radialGradient3658"
       gradientUnits="userSpaceOnUse"
       cx="873.57141"
       cy="872.00854"
       fx="873.57141"
       fy="872.00854"
       r="35" />
    <radialGradient
       inkscape:collect="always"
       xlink:href="#linearGradient3610"
       id="radialGradient3660"
       gradientUnits="userSpaceOnUse"
       cx="873.57141"
       cy="872.00854"
       fx="873.57141"
       fy="872.00854"
       r="35" />
    <radialGradient
       inkscape:collect="always"
       xlink:href="#linearGradient3610"
       id="radialGradient3664"
       gradientUnits="userSpaceOnUse"
       cx="873.57141"
       cy="872.00854"
       fx="873.57141"
       fy="872.00854"
       r="35" />
    <radialGradient
       inkscape:collect="always"
       xlink:href="#linearGradient3610"
       id="radialGradient3668"
       gradientUnits="userSpaceOnUse"
       cx="873.57141"
       cy="872.00854"
       fx="873.57141"
       fy="872.00854"
       r="35" />
    <radialGradient
       inkscape:collect="always"
       xlink:href="#linearGradient3610"
       id="radialGradient3672"
       gradientUnits="userSpaceOnUse"
       cx="873.57141"
       cy="872.00854"
       fx="873.57141"
       fy="872.00854"
       r="35" />
    <radialGradient
       inkscape:collect="always"
       xlink:href="#linearGradient3793"
       id="radialGradient3914"
       gradientUnits="userSpaceOnUse"
       gradientTransform="matrix(2.0444932,-0.04835617,0.01043923,0.44136955,387.27619,203.29948)"
       cx="-373.88303"
       cy="478.44418"
       fx="-373.88303"
       fy="478.44418"
       r="140.48812" />
    <linearGradient
       inkscape:collect="always"
       xlink:href="#linearGradient3895"
       id="linearGradient3916"
       gradientUnits="userSpaceOnUse"
       gradientTransform="matrix(1.1768048,0,0,1.3897445,105.56982,-175.61499)"
       x1="-438.97577"
       y1="465.39047"
       x2="-411.19131"
       y2="408.9924" />
    <linearGradient
       inkscape:collect="always"
       xlink:href="#linearGradient3955"
       id="linearGradient3941"
       gradientUnits="userSpaceOnUse"
       gradientTransform="matrix(1.1768048,0,0,1.3897445,310.95673,-342.19823)"
       x1="-438.97577"
       y1="465.39047"
       x2="-411.19131"
       y2="408.9924" />
    <radialGradient
       inkscape:collect="always"
       xlink:href="#linearGradient3949"
       id="radialGradient3946"
       gradientUnits="userSpaceOnUse"
       gradientTransform="matrix(2.0444932,-0.04835617,0.01043923,0.44136955,601.54058,34.10522)"
       cx="-373.88303"
       cy="478.44418"
       fx="-373.88303"
       fy="478.44418"
       r="140.48811" />
    <linearGradient
       inkscape:collect="always"
       xlink:href="#linearGradient3955"
       id="linearGradient3965"
       gradientUnits="userSpaceOnUse"
       gradientTransform="matrix(0.62148391,0,0,0.73393977,63.615401,-52.19922)"
       x1="-438.97577"
       y1="465.39047"
       x2="-411.19131"
       y2="408.9924" />
    <linearGradient
       inkscape:collect="always"
       xlink:href="#linearGradient3955"
       id="linearGradient3981"
       gradientUnits="userSpaceOnUse"
       gradientTransform="matrix(0.62148391,0,0,0.73393977,63.615401,-52.19922)"
       x1="-438.97577"
       y1="465.39047"
       x2="-411.19131"
       y2="408.9924" />
    <radialGradient
       inkscape:collect="always"
       xlink:href="#linearGradient3949"
       id="radialGradient3983"
       gradientUnits="userSpaceOnUse"
       gradientTransform="matrix(2.0444932,-0.04835617,0.01043923,0.44136955,601.54058,34.10522)"
       cx="-373.88303"
       cy="478.44418"
       fx="-373.88303"
       fy="478.44418"
       r="140.48811" />
    <linearGradient
       inkscape:collect="always"
       xlink:href="#linearGradient3955"
       id="linearGradient3985"
       gradientUnits="userSpaceOnUse"
       gradientTransform="matrix(1.1768048,0,0,1.3897445,310.95673,-342.19823)"
       x1="-438.97577"
       y1="465.39047"
       x2="-411.19131"
       y2="408.9924" />
    <linearGradient
       inkscape:collect="always"
       xlink:href="#linearGradient3955"
       id="linearGradient3346"
       gradientUnits="userSpaceOnUse"
       gradientTransform="matrix(0.62148391,0,0,0.73393977,63.615401,-52.19922)"
       x1="-438.97577"
       y1="465.39047"
       x2="-411.19131"
       y2="408.9924" />
    <radialGradient
       inkscape:collect="always"
       xlink:href="#linearGradient3949"
       id="radialGradient3348"
       gradientUnits="userSpaceOnUse"
       gradientTransform="matrix(2.0444932,-0.04835617,0.01043923,0.44136955,601.54058,34.10522)"
       cx="-373.88303"
       cy="478.44418"
       fx="-373.88303"
       fy="478.44418"
       r="140.48811" />
    <linearGradient
       inkscape:collect="always"
       xlink:href="#linearGradient3955"
       id="linearGradient3350"
       gradientUnits="userSpaceOnUse"
       gradientTransform="matrix(1.1768048,0,0,1.3897445,310.95673,-342.19823)"
       x1="-438.97577"
       y1="465.39047"
       x2="-411.19131"
       y2="408.9924" />
    <linearGradient
       inkscape:collect="always"
       xlink:href="#linearGradient4142"
       id="linearGradient3355"
       gradientUnits="userSpaceOnUse"
       gradientTransform="matrix(1.1768048,0,0,1.3897445,1526.542,-327.42806)"
       x1="-438.97577"
       y1="465.39047"
       x2="-411.19131"
       y2="408.9924" />
    <radialGradient
       inkscape:collect="always"
       xlink:href="#linearGradient4136"
       id="radialGradient3361"
       gradientUnits="userSpaceOnUse"
       gradientTransform="matrix(2.0444932,-0.04835617,0.01043923,0.44136955,1817.1259,48.875394)"
       cx="-371.75861"
       cy="511.99753"
       fx="-371.75861"
       fy="511.99753"
       r="140.48811" />
    <linearGradient
       inkscape:collect="always"
       xlink:href="#linearGradient4150"
       id="linearGradient3364"
       gradientUnits="userSpaceOnUse"
       gradientTransform="matrix(0.62148391,0,0,0.73393977,1279.2007,-37.429046)"
       x1="-438.97577"
       y1="465.39047"
       x2="-411.19131"
       y2="408.9924" />
    <linearGradient
       inkscape:collect="always"
       xlink:href="#linearGradient4150"
       id="linearGradient4167"
       gradientUnits="userSpaceOnUse"
       gradientTransform="matrix(0.62148391,0,0,0.73393977,1279.2007,-37.429046)"
       x1="-438.97577"
       y1="465.39047"
       x2="-411.19131"
       y2="408.9924" />
    <radialGradient
       inkscape:collect="always"
       xlink:href="#linearGradient4136"
       id="radialGradient4169"
       gradientUnits="userSpaceOnUse"
       gradientTransform="matrix(2.0444932,-0.04835617,0.01043923,0.44136955,1817.1259,48.875394)"
       cx="-371.75861"
       cy="511.99753"
       fx="-371.75861"
       fy="511.99753"
       r="140.48811" />
    <linearGradient
       inkscape:collect="always"
       xlink:href="#linearGradient4142"
       id="linearGradient4171"
       gradientUnits="userSpaceOnUse"
       gradientTransform="matrix(1.1768048,0,0,1.3897445,1526.542,-327.42806)"
       x1="-438.97577"
       y1="465.39047"
       x2="-411.19131"
       y2="408.9924" />
  </defs>
  <sodipodi:namedview
     id="base"
     pagecolor="#ffffff"
     bordercolor="#666666"
     borderopacity="1.0"
     inkscape:pageopacity="0.0"
     inkscape:pageshadow="2"
     inkscape:zoom="0.39947787"
     inkscape:cx="896.17203"
     inkscape:cy="745.63226"
     inkscape:document-units="px"
     inkscape:current-layer="layer1"
     showgrid="false"
     inkscape:window-width="1440"
     inkscape:window-height="793"
     inkscape:window-x="0"
     inkscape:window-y="31"
     inkscape:window-maximized="0"
     showguides="true"
     inkscape:guide-bbox="true" />
  <metadata
     id="metadata7">
    <rdf:RDF>
      <cc:Work
         rdf:about="">
        <dc:format>image/svg+xml</dc:format>
        <dc:type
           rdf:resource="http://purl.org/dc/dcmitype/StillImage" />
        <dc:title></dc:title>
      </cc:Work>
    </rdf:RDF>
  </metadata>
  <g
     inkscape:label="Layer 1"
     inkscape:groupmode="layer"
     id="layer1">
    <rect
       style="fill:#050041;fill-opacity:1;stroke:none"
       id="rect3591"
       width="446.05072"
       height="334.53802"
       x="131.82491"
       y="622.03717" />
    <path
       inkscape:connector-curvature="0"
       style="font-size:medium;font-style:normal;font-variant:normal;font-weight:normal;font-stretch:normal;text-indent:0;text-align:start;text-decoration:none;line-height:normal;letter-spacing:normal;word-spacing:normal;text-transform:none;direction:ltr;block-progression:tb;writing-mode:lr-tb;text-anchor:start;color:#000000;fill:#28500d;fill-opacity:1;stroke:none;stroke-width:22;marker:none;visibility:visible;display:inline;overflow:visible;enable-background:accumulate;font-family:Bitstream Vera Sans;-inkscape-font-specification:Bitstream Vera Sans"
       d="m 166.55386,840.15554 c -2.74946,0.0259 -5.43298,1.41691 -6.81476,3.53251 -1.38177,2.1156 -1.41183,4.87925 -0.0763,7.01826 0,0 2.71231,4.49876 5.57635,10.69198 2.86404,6.19322 5.69148,14.09641 6.05237,19.48764 0.26195,3.91328 -2.88498,9.32929 -8.04716,16.09849 -5.16218,6.7692 -11.87866,14.56611 -14.66624,24.61172 -5.52717,19.91827 4.90792,34.72049 4.90792,34.72049 0,0 15.23428,-0.0329 15.23428,-0.0329 0,0 -8.36128,-17.93973 -4.65991,-31.27832 1.75255,-6.31568 6.97827,-12.97343 12.37676,-20.0525 5.39849,-7.07907 11.43602,-14.90467 10.76733,-24.89415 -0.56975,-8.51154 -4.0207,-17.17386 -7.20844,-24.06704 -3.18774,-6.89319 -6.30172,-12.02344 -6.30172,-12.02344 -1.35228,-2.30334 -4.2204,-3.83484 -7.14044,-3.8128 z"
       id="path3593"
       sodipodi:nodetypes="cscssssccsssscc" />
    <path
       inkscape:connector-curvature="0"
       style="font-size:medium;font-style:normal;font-variant:normal;font-weight:normal;font-stretch:normal;text-indent:0;text-align:start;text-decoration:none;line-height:normal;letter-spacing:normal;word-spacing:normal;text-transform:none;direction:ltr;block-progression:tb;writing-mode:lr-tb;text-anchor:start;color:#000000;fill:#28500d;fill-opacity:1;stroke:none;stroke-width:22;marker:none;visibility:visible;display:inline;overflow:visible;enable-background:accumulate;font-family:Bitstream Vera Sans;-inkscape-font-specification:Bitstream Vera Sans"
       d="m 205.14781,840.15554 c -2.74946,0.0259 -5.43298,1.41691 -6.81476,3.53251 -1.38177,2.1156 -1.41183,4.87925 -0.0763,7.01826 0,0 2.71231,4.49876 5.57635,10.69198 2.86404,6.19322 5.69148,14.09641 6.05237,19.48764 0.26195,3.91328 -2.88498,9.32929 -8.04716,16.09849 -5.16218,6.7692 -11.87866,14.56611 -14.66624,24.61172 -5.52717,19.91827 4.90792,34.72049 4.90792,34.72049 0,0 15.23428,-0.0329 15.23428,-0.0329 0,0 -8.36128,-17.93973 -4.65991,-31.27832 1.75256,-6.31568 6.97827,-12.97343 12.37676,-20.0525 5.39849,-7.07907 11.43602,-14.90467 10.76733,-24.89415 -0.56975,-8.51154 -4.0207,-17.17386 -7.20844,-24.06704 -3.18774,-6.89319 -6.30172,-12.02344 -6.30172,-12.02344 -1.35228,-2.30334 -4.2204,-3.83484 -7.14044,-3.8128 z"
       id="path3601"
       sodipodi:nodetypes="cscssssccsssscc" />
    <path
       inkscape:connector-curvature="0"
       sodipodi:nodetypes="cscssssccsssscc"
       id="path3603"
       d="m 243.48922,840.15554 c -2.74945,0.0259 -5.43297,1.41691 -6.81475,3.53251 -1.38177,2.1156 -1.41183,4.87925 -0.0763,7.01826 0,0 2.71231,4.49876 5.57635,10.69198 2.86404,6.19322 5.69148,14.09641 6.05237,19.48764 0.26195,3.91328 -2.88498,9.3293 -8.04716,16.09849 -5.16219,6.7692 -11.87866,14.56611 -14.66624,24.61173 -5.52717,19.91826 4.90792,34.72048 4.90792,34.72048 0,0 15.23428,-0.0329 15.23428,-0.0329 0,0 -8.36128,-17.93973 -4.65991,-31.27831 1.75255,-6.31569 6.97827,-12.97344 12.37676,-20.05251 5.39849,-7.07907 11.43602,-14.90467 10.76733,-24.89415 -0.56975,-8.51154 -4.0207,-17.17385 -7.20844,-24.06704 -3.18774,-6.89319 -6.30172,-12.02343 -6.30172,-12.02343 -1.35228,-2.30335 -4.2204,-3.83485 -7.14045,-3.8128 z"
       style="font-size:medium;font-style:normal;font-variant:normal;font-weight:normal;font-stretch:normal;text-indent:0;text-align:start;text-decoration:none;line-height:normal;letter-spacing:normal;word-spacing:normal;text-transform:none;direction:ltr;block-progression:tb;writing-mode:lr-tb;text-anchor:start;color:#000000;fill:#28500d;fill-opacity:1;stroke:none;stroke-width:22;marker:none;visibility:visible;display:inline;overflow:visible;enable-background:accumulate;font-family:Bitstream Vera Sans;-inkscape-font-specification:Bitstream Vera Sans" />
    <path
       inkscape:connector-curvature="0"
       style="fill:#696969;fill-opacity:1;stroke:none"
       d="m 559.85911,944.69429 c 0,16.17886 -27.49714,11.11167 -65.15484,11.11167 -37.6577,0 -71.21575,5.06719 -71.21575,-11.11167 0,-16.17887 31.58027,-20.45276 68.18529,-29.29443 37.6577,-9.09594 68.1853,12.64605 68.1853,29.29443 z"
       id="path3605"
       sodipodi:nodetypes="csssc" />
    <path
       sodipodi:type="arc"
       style="fill:url(#radialGradient3616);fill-opacity:1;stroke:none"
       id="path3608"
       sodipodi:cx="873.57141"
       sodipodi:cy="893.07648"
       sodipodi:rx="35"
       sodipodi:ry="35"
       d="m 908.57141,893.07648 a 35,35 0 1 1 -70,0 35,35 0 1 1 70,0 z"
       transform="matrix(0.18101429,0,0,0.18101429,11.777985,657.22408)" />
    <path
       transform="matrix(0.22101432,0,0,0.22101432,-8.1934145,485.10106)"
       d="m 908.57141,893.07648 a 35,35 0 1 1 -70,0 35,35 0 1 1 70,0 z"
       sodipodi:ry="35"
       sodipodi:rx="35"
       sodipodi:cy="893.07648"
       sodipodi:cx="873.57141"
       id="path3618"
       style="fill:url(#radialGradient3636);fill-opacity:1;stroke:none"
       sodipodi:type="arc" />
    <path
       sodipodi:type="arc"
       style="fill:url(#radialGradient3634);fill-opacity:1;stroke:none"
       id="path3620"
       sodipodi:cx="873.57141"
       sodipodi:cy="893.07648"
       sodipodi:rx="35"
       sodipodi:ry="35"
       d="m 908.57141,893.07648 a 35,35 0 1 1 -70,0 35,35 0 1 1 70,0 z"
       transform="matrix(0.19244286,0,0,0.19244286,65.051519,503.04612)" />
    <path
       transform="matrix(0.14815716,0,0,0.14815716,115.75965,685.06099)"
       d="m 908.57141,893.07648 a 35,35 0 1 1 -70,0 35,35 0 1 1 70,0 z"
       sodipodi:ry="35"
       sodipodi:rx="35"
       sodipodi:cy="893.07648"
       sodipodi:cx="873.57141"
       id="path3622"
       style="fill:url(#radialGradient3632);fill-opacity:1;stroke:none"
       sodipodi:type="arc" />
    <path
       sodipodi:type="arc"
       style="fill:url(#radialGradient3630);fill-opacity:1;stroke:none"
       id="path3624"
       sodipodi:cx="873.57141"
       sodipodi:cy="893.07648"
       sodipodi:rx="35"
       sodipodi:ry="35"
       d="m 908.57141,893.07648 a 35,35 0 1 1 -70,0 35,35 0 1 1 70,0 z"
       transform="matrix(0.19530002,0,0,0.19530002,-1.6301119,596.82306)" />
    <path
       transform="matrix(0.23958571,0,0,0.23958571,-21.624016,524.29393)"
       d="m 908.57141,893.07648 a 35,35 0 1 1 -70,0 35,35 0 1 1 70,0 z"
       sodipodi:ry="35"
       sodipodi:rx="35"
       sodipodi:cy="893.07648"
       sodipodi:cx="873.57141"
       id="path3626"
       style="fill:url(#radialGradient3628);fill-opacity:1;stroke:none"
       sodipodi:type="arc" />
    <path
       transform="matrix(0.18101429,0,0,0.18101429,49.635127,622.22408)"
       d="m 908.57141,893.07648 a 35,35 0 1 1 -70,0 35,35 0 1 1 70,0 z"
       sodipodi:ry="35"
       sodipodi:rx="35"
       sodipodi:cy="893.07648"
       sodipodi:cx="873.57141"
       id="path3638"
       style="fill:url(#radialGradient3650);fill-opacity:1;stroke:none"
       sodipodi:type="arc" />
    <path
       sodipodi:type="arc"
       style="fill:url(#radialGradient3652);fill-opacity:1;stroke:none"
       id="path3640"
       sodipodi:cx="873.57141"
       sodipodi:cy="893.07648"
       sodipodi:rx="35"
       sodipodi:ry="35"
       d="m 908.57141,893.07648 a 35,35 0 1 1 -70,0 35,35 0 1 1 70,0 z"
       transform="matrix(0.22101432,0,0,0.22101432,14.663728,453.67249)" />
    <path
       transform="matrix(0.19244286,0,0,0.19244286,77.908661,529.47469)"
       d="m 908.57141,893.07648 a 35,35 0 1 1 -70,0 35,35 0 1 1 70,0 z"
       sodipodi:ry="35"
       sodipodi:rx="35"
       sodipodi:cy="893.07648"
       sodipodi:cx="873.57141"
       id="path3642"
       style="fill:url(#radialGradient3654);fill-opacity:1;stroke:none"
       sodipodi:type="arc" />
    <path
       sodipodi:type="arc"
       style="fill:url(#radialGradient3656);fill-opacity:1;stroke:none"
       id="path3644"
       sodipodi:cx="873.57141"
       sodipodi:cy="893.07648"
       sodipodi:rx="35"
       sodipodi:ry="35"
       d="m 908.57141,893.07648 a 35,35 0 1 1 -70,0 35,35 0 1 1 70,0 z"
       transform="matrix(0.14815716,0,0,0.14815716,110.04536,639.3467)" />
    <path
       transform="matrix(0.19530002,0,0,0.19530002,44.798459,533.25162)"
       d="m 908.57141,893.07648 a 35,35 0 1 1 -70,0 35,35 0 1 1 70,0 z"
       sodipodi:ry="35"
       sodipodi:rx="35"
       sodipodi:cy="893.07648"
       sodipodi:cx="873.57141"
       id="path3646"
       style="fill:url(#radialGradient3658);fill-opacity:1;stroke:none"
       sodipodi:type="arc" />
    <path
       sodipodi:type="arc"
       style="fill:url(#radialGradient3660);fill-opacity:1;stroke:none"
       id="path3648"
       sodipodi:cx="873.57141"
       sodipodi:cy="893.07648"
       sodipodi:rx="35"
       sodipodi:ry="35"
       d="m 908.57141,893.07648 a 35,35 0 1 1 -70,0 35,35 0 1 1 70,0 z"
       transform="matrix(0.19876938,0,0,0.19876938,41.889103,569.31746)" />
    <path
       sodipodi:type="arc"
       style="fill:url(#radialGradient3664);fill-opacity:1;stroke:none"
       id="path3662"
       sodipodi:cx="873.57141"
       sodipodi:cy="893.07648"
       sodipodi:rx="35"
       sodipodi:ry="35"
       d="m 908.57141,893.07648 a 35,35 0 1 1 -70,0 35,35 0 1 1 70,0 z"
       transform="matrix(0.14815716,0,0,0.14815716,50.04536,508.63242)" />
    <path
       transform="matrix(0.14815716,0,0,0.14815716,119.33107,507.91813)"
       d="m 908.57141,893.07648 a 35,35 0 1 1 -70,0 35,35 0 1 1 70,0 z"
       sodipodi:ry="35"
       sodipodi:rx="35"
       sodipodi:cy="893.07648"
       sodipodi:cx="873.57141"
       id="path3666"
       style="fill:url(#radialGradient3668);fill-opacity:1;stroke:none"
       sodipodi:type="arc" />
    <path
       sodipodi:type="arc"
       style="fill:url(#radialGradient3672);fill-opacity:1;stroke:none"
       id="path3670"
       sodipodi:cx="873.57141"
       sodipodi:cy="893.07648"
       sodipodi:rx="35"
       sodipodi:ry="35"
       d="m 908.57141,893.07648 a 35,35 0 1 1 -70,0 35,35 0 1 1 70,0 z"
       transform="matrix(0.18101429,0,0,0.18101429,51.063698,657.22408)" />
    <path
       inkscape:export-ydpi="15.235909"
       inkscape:export-xdpi="15.235909"
       inkscape:export-filename="/Users/jonathanslate/personal/src/fish/media/green-fish.png"
       sodipodi:nodetypes="cscscsc"
       id="path2994"
       d="m -92.504223,79.50805 c 21.3024,0 46.6527,63.01771 46.6527,136.39269 0,31.82295 -11.8346,61.53776 -17.2514,84.41516 66.1631996,118.76502 5.3898,25.34896 -28.8962,23.69325 -43.323897,-2.09215 -105.653987,74.88997 -30.399597,-27.68393 -5.4239,-22.88482 -16.253,-57.66975 -16.253,-89.51585 0,-73.37498 24.8451,-127.30132 46.147497,-127.30132 z"
       style="fill:#1b8300;fill-opacity:1;stroke:none"
       inkscape:connector-curvature="0" />
    <g
       id="g3905"
       transform="matrix(0,-1,1,0,-206.07562,-152.60497)"
       inkscape:export-filename="/Users/jonathanslate/personal/src/fish/media/purple-fish.png"
       inkscape:export-xdpi="23.70307"
       inkscape:export-ydpi="23.70307">
      <path
         style="fill:#504389;fill-opacity:1;stroke:none"
         d="m -422.32439,412.82724 c 32.77464,16.13482 14.16935,30.41324 7.72169,45.13091 19.79171,-21.74882 42.03188,-44.61229 88.19051,-46.35201 z"
         id="path3817"
         inkscape:connector-curvature="0"
         sodipodi:nodetypes="cccc" />
      <path
         inkscape:connector-curvature="0"
         inkscape:export-ydpi="11.608312"
         inkscape:export-xdpi="11.608312"
         inkscape:export-filename="/Users/jonathanslate/personal/src/fish/media/purple-fish.png"
         sodipodi:nodetypes="cscscsc"
         id="path3768"
         d="m -245.64515,399.46703 c 0,21.30241 -63.01771,46.65265 -136.39269,46.65265 -31.82295,0 -61.53776,-11.83457 -84.41516,-17.25137 -118.76502,66.1632 -25.34896,5.38982 -23.69325,-28.8962 2.09215,-43.32396 -74.88997,-105.65401 27.68393,-30.39961 22.88482,-5.4239 57.66975,-16.25304 89.51585,-16.25304 73.37498,0 127.30132,24.84516 127.30132,46.14757 z"
         style="fill:url(#radialGradient3914);fill-opacity:1;stroke:none" />
      <path
         transform="translate(17.663013,6.7934667)"
         d="m -286.68429,383.88507 c 0,6.75347 -8.5163,12.22824 -19.0217,12.22824 -10.5054,0 -19.02171,-5.47477 -19.02171,-12.22824 0,-6.75347 8.51631,-12.22824 19.02171,-12.22824 10.5054,0 19.0217,5.47477 19.0217,12.22824 z"
         sodipodi:ry="12.22824"
         sodipodi:rx="19.021708"
         sodipodi:cy="383.88507"
         sodipodi:cx="-305.70599"
         id="path3801"
         style="fill:#d1d1d1;fill-opacity:1;stroke:#000000;stroke-width:3.5;stroke-linecap:butt;stroke-miterlimit:4;stroke-opacity:1;stroke-dasharray:none;stroke-dashoffset:0"
         sodipodi:type="arc" />
      <path
         transform="translate(-28.341868,185.90344)"
         d="m -245.92349,204.53754 c 0,5.2527 -4.25815,9.51085 -9.51085,9.51085 -5.2527,0 -9.51086,-4.25815 -9.51086,-9.51085 0,-5.2527 4.25816,-9.51086 9.51086,-9.51086 5.2527,0 9.51085,4.25816 9.51085,9.51086 z"
         sodipodi:ry="9.5108538"
         sodipodi:rx="9.5108538"
         sodipodi:cy="204.53754"
         sodipodi:cx="-255.43434"
         id="path3803"
         style="fill:#000000;fill-opacity:1;stroke:none"
         sodipodi:type="arc" />
      <path
         sodipodi:nodetypes="cccc"
         inkscape:connector-curvature="0"
         id="path3807"
         d="m -423.30962,394.92626 c 51.07208,27.22327 22.07982,51.31435 12.03257,76.14657 30.84102,-36.69544 65.49743,-75.27153 137.42551,-78.20687 z"
         style="fill:url(#linearGradient3916);fill-opacity:1;stroke:none" />
      <path
         sodipodi:nodetypes="ccccc"
         inkscape:connector-curvature="0"
         id="path3809"
         d="m -310.8125,419.90625 0,2 c 18.20876,9.24585 29.768,0.75969 44.27364,0.13055 l 2.87213,-1.86945 z"
         style="font-size:medium;font-style:normal;font-variant:normal;font-weight:normal;font-stretch:normal;text-indent:0;text-align:start;text-decoration:none;line-height:normal;letter-spacing:normal;word-spacing:normal;text-transform:none;direction:ltr;block-progression:tb;writing-mode:lr-tb;text-anchor:start;baseline-shift:baseline;color:#000000;fill:#000000;fill-opacity:1;stroke:none;stroke-width:2;marker:none;visibility:visible;display:inline;overflow:visible;enable-background:accumulate;font-family:Sans;-inkscape-font-specification:Sans" />
      <path
         sodipodi:nodetypes="cccc"
         inkscape:connector-curvature="0"
         id="path3811"
         d="m -388.8942,347.11936 c -15.69182,5.69512 0.4859,2.68055 -15.26148,8.23314 l 35.61011,-0.47047 z"
         style="fill:#941fa7;fill-opacity:1;stroke:none" />
    </g>
    <g
       id="g3971"
       transform="matrix(0,-1,1,0,114.55606,60.544662)"
       inkscape:export-filename="/Users/jonathanslate/personal/src/fish/media/yellow-fish.png"
       inkscape:export-xdpi="20.57"
       inkscape:export-ydpi="20.57">
      <path
         sodipodi:nodetypes="cccc"
         inkscape:connector-curvature="0"
         id="path3963"
         d="m -215.69181,249.11007 c 26.97174,14.37691 11.6606,27.09968 6.35454,40.21386 16.28749,-19.37928 34.58993,-39.75175 72.57596,-41.30193 z"
         style="fill:url(#linearGradient3981);fill-opacity:1;stroke:none" />
      <path
         style="fill:url(#radialGradient3983);fill-opacity:1;stroke:none"
         d="m -21.981079,257.4274 c 0,21.30241 -72.417391,19.49802 -145.792371,19.49802 -31.82295,0 -61.53776,-11.83457 -84.41516,-17.25137 -129.20911,42.14179 -25.34896,5.38982 -23.69325,-28.8962 2.09215,-43.32396 -66.01249,-66.48867 27.68393,-30.39961 22.88482,-5.4239 57.66975,-16.25304 89.51585,-16.25304 73.37498,0 136.701001,51.99979 136.701001,73.3022 z"
         id="path3922"
         sodipodi:nodetypes="cscscsc"
         inkscape:export-filename="/Users/jonathanslate/personal/src/fish/media/purple-fish.png"
         inkscape:export-xdpi="11.608312"
         inkscape:export-ydpi="11.608312"
         inkscape:connector-curvature="0" />
      <g
         transform="matrix(0.99302506,0.11790349,-0.11790349,0.99302506,27.86598,18.273054)"
         id="g3967">
        <path
           transform="matrix(1.4752944,0,0,0.99952409,371.50431,-155.94077)"
           d="m -286.68429,383.88507 c 0,6.75347 -8.5163,12.22824 -19.0217,12.22824 -10.5054,0 -19.02171,-5.47477 -19.02171,-12.22824 0,-6.75347 8.51631,-12.22824 19.02171,-12.22824 10.5054,0 19.0217,5.47477 19.0217,12.22824 z"
           sodipodi:ry="12.22824"
           sodipodi:rx="19.021708"
           sodipodi:cy="383.88507"
           sodipodi:cx="-305.70599"
           id="path3924"
           style="fill:#d1d1d1;fill-opacity:1;stroke:#000000;stroke-width:3.5;stroke-linecap:butt;stroke-miterlimit:4;stroke-opacity:1;stroke-dasharray:none;stroke-dashoffset:0"
           sodipodi:type="arc" />
        <path
           transform="translate(193.67686,24.094267)"
           d="m -245.92349,204.53754 c 0,5.2527 -4.25815,9.51085 -9.51085,9.51085 -5.2527,0 -9.51086,-4.25815 -9.51086,-9.51085 0,-5.2527 4.25816,-9.51086 9.51086,-9.51086 5.2527,0 9.51085,4.25816 9.51085,9.51086 z"
           sodipodi:ry="9.5108538"
           sodipodi:rx="9.5108538"
           sodipodi:cy="204.53754"
           sodipodi:cx="-255.43434"
           id="path3926"
           style="fill:#000000;fill-opacity:1;stroke:none"
           sodipodi:type="arc" />
      </g>
      <path
         style="fill:url(#linearGradient3985);fill-opacity:1;stroke:none"
         d="m -217.92271,228.34302 c 51.07208,27.22327 22.07982,51.31435 12.03257,76.14657 30.84102,-36.69544 65.49743,-75.27153 137.425514,-78.20687 z"
         id="path3928"
         inkscape:connector-curvature="0"
         sodipodi:nodetypes="cccc" />
      <path
         style="font-size:medium;font-style:normal;font-variant:normal;font-weight:normal;font-stretch:normal;text-indent:0;text-align:start;text-decoration:none;line-height:normal;letter-spacing:normal;word-spacing:normal;text-transform:none;direction:ltr;block-progression:tb;writing-mode:lr-tb;text-anchor:start;baseline-shift:baseline;color:#000000;fill:#000000;fill-opacity:1;stroke:none;stroke-width:2;marker:none;visibility:visible;display:inline;overflow:visible;enable-background:accumulate;font-family:Sans;-inkscape-font-specification:Sans"
         d="m -73.531356,256.97844 8.35527,8.06901 c 20.56028,4.54062 4.04303,4.30123 33.318076,2.74858 l 8.565895,-4.42897 z"
         id="path3930"
         inkscape:connector-curvature="0"
         sodipodi:nodetypes="ccccc" />
      <path
         style="fill:#564f38;fill-opacity:1;stroke:none"
         d="m -201.18763,173.22526 c -36.17185,8.94615 12.60856,10.99939 -32.56884,23.89927 l 79.47529,-11.70533 z"
         id="path3932"
         inkscape:connector-curvature="0"
         sodipodi:nodetypes="cccc" />
    </g>
    <g
       id="g4158"
       transform="matrix(0,-1,1,0,283.43115,1270.6879)"
       inkscape:export-filename="/Users/jonathanslate/personal/code/fish/media/green-fish.png"
       inkscape:export-xdpi="18.69722"
       inkscape:export-ydpi="18.69722">
      <path
         style="fill:url(#linearGradient4167);fill-opacity:1;stroke:none"
         d="m 999.89349,263.88024 c 26.97171,14.37691 11.66061,27.09968 6.35451,40.21386 16.2875,-19.37928 34.59,-39.75175 72.576,-41.30193 z"
         id="path3330"
         inkscape:connector-curvature="0"
         sodipodi:nodetypes="cccc" />
      <path
         inkscape:connector-curvature="0"
         inkscape:export-ydpi="11.608312"
         inkscape:export-xdpi="11.608312"
         inkscape:export-filename="/Users/jonathanslate/personal/src/fish/media/purple-fish.png"
         sodipodi:nodetypes="cscscsc"
         id="path3332"
         d="m 1193.6042,272.19757 c 0,21.30241 -72.4174,19.49802 -145.7923,19.49802 -31.823,0 -61.53781,-11.83457 -84.41521,-17.25137 -129.20911,42.14179 -5.58645,0.2657 -23.69325,-28.8962 -27.99917,-45.09404 -66.01249,-66.48867 27.68393,-30.39961 22.88482,-5.4239 57.66973,-16.25304 89.51583,-16.25304 73.375,0 136.701,51.99979 136.701,73.3022 z"
         style="fill:url(#radialGradient4169);fill-opacity:1;stroke:none" />
      <path
         transform="matrix(1.7066565,0.20286083,-0.13728629,1.1575675,1732.7987,-139.8678)"
         d="m -296.94407,383.88507 c 0,6.75347 -3.92285,12.22824 -8.76192,12.22824 -4.83908,0 -8.76193,-5.47477 -8.76193,-12.22824 0,-6.75347 3.92285,-12.22824 8.76193,-12.22824 4.83907,0 8.76192,5.47477 8.76192,12.22824 z"
         sodipodi:ry="12.22824"
         sodipodi:rx="8.7619228"
         sodipodi:cy="383.88507"
         sodipodi:cx="-305.70599"
         id="path3336"
         style="fill:#d1d1d1;fill-opacity:1;stroke:#000000;stroke-width:3.00274205;stroke-linecap:butt;stroke-miterlimit:4;stroke-opacity:1;stroke-dasharray:none;stroke-dashoffset:0"
         sodipodi:type="arc" />
      <path
         transform="matrix(0.99302506,0.11790349,-0.11790349,0.99302506,1436.0656,69.791547)"
         d="m -245.92349,204.53754 c 0,5.2527 -4.25815,9.51085 -9.51085,9.51085 -5.2527,0 -9.51086,-4.25815 -9.51086,-9.51085 0,-5.2527 4.25816,-9.51086 9.51086,-9.51086 5.2527,0 9.51085,4.25816 9.51085,9.51086 z"
         sodipodi:ry="9.5108538"
         sodipodi:rx="9.5108538"
         sodipodi:cy="204.53754"
         sodipodi:cx="-255.43434"
         id="path3338"
         style="fill:#000000;fill-opacity:1;stroke:none"
         sodipodi:type="arc" />
      <path
         sodipodi:nodetypes="cccc"
         inkscape:connector-curvature="0"
         id="path3340"
         d="m 997.66259,243.11319 c 51.07211,27.22327 22.07981,51.31435 12.03261,76.14657 30.841,-36.69544 65.4974,-75.27153 137.4255,-78.20687 z"
         style="fill:url(#linearGradient4171);fill-opacity:1;stroke:none" />
      <path
         sodipodi:nodetypes="cccc"
         inkscape:connector-curvature="0"
         id="path3342"
         d="m 1088.5466,257.04191 c 42.4727,30.98778 61.2337,28.50825 76.3689,30.84373 9.4475,-1.81479 21.2679,-3.90799 26.7519,-10.37423 z"
         style="font-size:medium;font-style:normal;font-variant:normal;font-weight:normal;font-stretch:normal;text-indent:0;text-align:start;text-decoration:none;line-height:normal;letter-spacing:normal;word-spacing:normal;text-transform:none;direction:ltr;block-progression:tb;writing-mode:lr-tb;text-anchor:start;baseline-shift:baseline;color:#000000;fill:#000000;fill-opacity:1;stroke:none;stroke-width:2;marker:none;visibility:visible;display:inline;overflow:visible;enable-background:accumulate;font-family:Sans;-inkscape-font-specification:Sans" />
      <path
         sodipodi:nodetypes="cccc"
         inkscape:connector-curvature="0"
         id="path3344"
         d="m 1042.8724,174.85328 c -36.1719,8.94615 -15.8662,24.14154 -61.04357,37.04142 l 106.07247,-9.51497 z"
         style="fill:#078510;fill-opacity:1;stroke:none" />
    </g>
  </g>
</svg>
